<svg xmlns="http://www.w3.org/2000/svg" class="tgw" role="img" aria-labelledby="tgw-90863560568c397b-diagram-title" width="400" height="384" viewBox="0 0 400 384" overflow="hidden" font-family="Inter, system-ui, -apple-system, BlinkMacSystemFont, Segoe UI, sans-serif" font-size="12" fill="#0f172a" stroke-linejoin="round"><title id="tgw-90863560568c397b-diagram-title">Signal timing diagram</title><desc>10 signal lanes; pclk; Pclk; nclk; Nclk;  ; clk0; clk1; clk2; clk3; clk4</desc><defs><pattern id="tgw-90863560568c397b-xh" width="6" height="6" patternUnits="userSpaceOnUse"><rect width="6" height="6" fill="#f1f5f9"/><path d="M-1,1 L1,-1 M0,6 L6,0 M5,7 L7,5" fill="none" stroke="#94a3b8" stroke-width="0.7"/></pattern><pattern id="tgw-90863560568c397b-k0" x="-4" y="-2" width="40" height="24" patternUnits="userSpaceOnUse" fill="none" stroke="#000" stroke-width="1" stroke-linecap="round" stroke-linejoin="round" viewBox="-4 -2 40 24"><path d="M-4 20H0M0 20V0H20M20 0V20H36"/></pattern><pattern id="tgw-90863560568c397b-k1" x="-4" y="-2" width="40" height="24" patternUnits="userSpaceOnUse" fill="none" stroke="#000" stroke-width="1" stroke-linecap="round" stroke-linejoin="round" viewBox="-4 -2 40 24"><path d="M-4 20H0M0 20V0H20M20 0V20H36"/><path d="M-3 12L0 3L3 12Z" fill="#000" stroke="none"/></pattern><pattern id="tgw-90863560568c397b-k2" x="-4" y="-2" width="40" height="24" patternUnits="userSpaceOnUse" fill="none" stroke="#000" stroke-width="1" stroke-linecap="round" stroke-linejoin="round" viewBox="-4 -2 40 24"><path d="M-4 0H0M0 0V20H20M20 20V0H36"/></pattern><pattern id="tgw-90863560568c397b-k3" x="-4" y="-2" width="40" height="24" patternUnits="userSpaceOnUse" fill="none" stroke="#000" stroke-width="1" stroke-linecap="round" stroke-linejoin="round" viewBox="-4 -2 40 24"><path d="M-4 0H0M0 0V20H20M20 20V0H36"/><path d="M-3 8L0 17L3 8Z" fill="#000" stroke="none"/></pattern><pattern id="tgw-90863560568c397b-k4" x="-4" y="-2" width="40" height="24" patternUnits="userSpaceOnUse" fill="none" stroke="#000" stroke-width="1" stroke-linecap="round" stroke-linejoin="round" viewBox="-4 -2 40 24"><path d="M-4 20H0M0 0H20M20 0V20H36"/></pattern><pattern id="tgw-90863560568c397b-k5" x="-4" y="-2" width="40" height="24" patternUnits="userSpaceOnUse" fill="none" stroke="#000" stroke-width="1" stroke-linecap="round" stroke-linejoin="round" viewBox="-4 -2 40 24"><path d="M-4 0H0M0 20H20M20 20V0H36"/></pattern><clipPath id="tgw-90863560568c397b-lane-clip" clipPathUnits="userSpaceOnUse"><rect x="-4" y="-4" width="324.5" height="28"/></clipPath><clipPath id="tgw-90863560568c397b-lane-crop" clipPathUnits="userSpaceOnUse"><rect x="0" y="-4" width="320.5" height="28"/></clipPath><clipPath id="tgw-90863560568c397b-plot-clip" clipPathUnits="userSpaceOnUse"><rect x="-4" y="-4" width="324.5" height="368"/></clipPath><pattern id="tgw-90863560568c397b-gd" width="40" height="360" patternUnits="userSpaceOnUse"><path d="M0.5,0 V360" fill="none" stroke="#cbd5e1" stroke-width="1" stroke-dasharray="2,4"/></pattern></defs><rect width="400" height="384" fill="#fff"/><g transform="translate(60.5,12.5)"><rect x="0" y="0" width="321" height="360" fill="url(#tgw-90863560568c397b-gd)" stroke="none"/><g transform="translate(0,5)"><text x="-10" y="15" text-anchor="end" fill="#334155" font-weight="500" xml:space="preserve">pclk</text><g clip-path="url(#tgw-90863560568c397b-lane-clip)"><g transform="translate(0)"><g fill="none" stroke="#000" stroke-width="1" stroke-linecap="round" stroke-linejoin="round"><path d="M0 20V0H4"/><g transform="translate(0)"><rect x="4" y="-2" width="312" height="24" fill="url(#tgw-90863560568c397b-k0)" stroke="none"/></g><path d="M316 20H320"/></g></g></g></g><g transform="translate(0,41)"><text x="-10" y="15" text-anchor="end" fill="#334155" font-weight="500" xml:space="preserve">Pclk</text><g clip-path="url(#tgw-90863560568c397b-lane-clip)"><g transform="translate(0)"><g fill="none" stroke="#000" stroke-width="1" stroke-linecap="round" stroke-linejoin="round"><path d="M0 20V0H4"/><path d="M-3 12L0 3L3 12Z" fill="#000" stroke="none"/><g transform="translate(0)"><rect x="4" y="-2" width="312" height="24" fill="url(#tgw-90863560568c397b-k1)" stroke="none"/></g><path d="M316 20H320"/></g></g></g></g><g transform="translate(0,77)"><text x="-10" y="15" text-anchor="end" fill="#334155" font-weight="500" xml:space="preserve">nclk</text><g clip-path="url(#tgw-90863560568c397b-lane-clip)"><g transform="translate(0)"><g fill="none" stroke="#000" stroke-width="1" stroke-linecap="round" stroke-linejoin="round"><path d="M0 0V20H4"/><g transform="translate(0)"><rect x="4" y="-2" width="312" height="24" fill="url(#tgw-90863560568c397b-k2)" stroke="none"/></g><path d="M316 0H320"/></g></g></g></g><g transform="translate(0,113)"><text x="-10" y="15" text-anchor="end" fill="#334155" font-weight="500" xml:space="preserve">Nclk</text><g clip-path="url(#tgw-90863560568c397b-lane-clip)"><g transform="translate(0)"><g fill="none" stroke="#000" stroke-width="1" stroke-linecap="round" stroke-linejoin="round"><path d="M0 0V20H4"/><path d="M-3 8L0 17L3 8Z" fill="#000" stroke="none"/><g transform="translate(0)"><rect x="4" y="-2" width="312" height="24" fill="url(#tgw-90863560568c397b-k3)" stroke="none"/></g><path d="M316 0H320"/></g></g></g></g><g transform="translate(0,149)"><text x="-10" y="15" text-anchor="end" fill="#334155" font-weight="500" xml:space="preserve"> </text><g clip-path="url(#tgw-90863560568c397b-lane-clip)"><g transform="translate(0)"></g></g></g><g transform="translate(0,185)"><text x="-10" y="15" text-anchor="end" fill="#334155" font-weight="500" xml:space="preserve">clk0</text><g clip-path="url(#tgw-90863560568c397b-lane-clip)"><g transform="translate(0)"><g fill="none" stroke="#000" stroke-width="1" stroke-linecap="round" stroke-linejoin="round"><path d="M0 20V0H4"/><g transform="translate(0)"><rect x="4" y="-2" width="32" height="24" fill="url(#tgw-90863560568c397b-k0)" stroke="none"/></g><path d="M36 20H40M40 20V0H60M60 0H80M80 0V20H84"/><g transform="translate(80)"><rect x="4" y="-2" width="32" height="24" fill="url(#tgw-90863560568c397b-k2)" stroke="none"/></g><path d="M116 0H120M120 0V20H140M140 20H160M160 20V0H164"/><path d="M157 12L160 3L163 12Z" fill="#000" stroke="none"/><g transform="translate(160)"><rect x="4" y="-2" width="32" height="24" fill="url(#tgw-90863560568c397b-k1)" stroke="none"/></g><path d="M196 20H200M200 20V0H220"/><path d="M197 12L200 3L203 12Z" fill="#000" stroke="none"/><path d="M220 0H240M240 0V20H244"/><path d="M237 8L240 17L243 8Z" fill="#000" stroke="none"/><g transform="translate(240)"><rect x="4" y="-2" width="32" height="24" fill="url(#tgw-90863560568c397b-k3)" stroke="none"/></g><path d="M276 0H280M280 0V20H300"/><path d="M277 8L280 17L283 8Z" fill="#000" stroke="none"/><path d="M300 20H320"/></g></g></g></g><g transform="translate(0,221)"><text x="-10" y="15" text-anchor="end" fill="#334155" font-weight="500" xml:space="preserve">clk1</text><g clip-path="url(#tgw-90863560568c397b-lane-clip)"><g transform="translate(0)"><g fill="none" stroke="#000" stroke-width="1" stroke-linecap="round" stroke-linejoin="round"><rect x="0" y="0" width="40" height="20" fill="url(#tgw-90863560568c397b-xh)" stroke="none"/><path d="M0 0H40M0 20H40M40 20V0H60M60 0H80M80 0V20H100M100 20H120M120 20V0H140M140 0H160M160 0V20H180"/><path d="M157 8L160 17L163 8Z" fill="#000" stroke="none"/><path d="M180 20H200M200 20V0H220"/><path d="M197 12L200 3L203 12Z" fill="#000" stroke="none"/><path d="M220 0H240M240 0V20H260M260 20H320"/></g></g></g></g><g transform="translate(0,257)"><text x="-10" y="15" text-anchor="end" fill="#334155" font-weight="500" xml:space="preserve">clk2</text><g clip-path="url(#tgw-90863560568c397b-lane-clip)"><g transform="translate(0)"><g fill="none" stroke="#000" stroke-width="1" stroke-linecap="round" stroke-linejoin="round"><path d="M0 0H40M40 0H44"/><g transform="translate(40)"><rect x="4" y="-2" width="32" height="24" fill="url(#tgw-90863560568c397b-k4)" stroke="none"/></g><path d="M76 20H80M80 20V0H100"/><path d="M77 12L80 3L83 12Z" fill="#000" stroke="none"/><path d="M100 0H120M120 0H124"/><g transform="translate(120)"><rect x="4" y="-2" width="32" height="24" fill="url(#tgw-90863560568c397b-k4)" stroke="none"/></g><path d="M156 20H160M160 20H200M200 20H204"/><g transform="translate(200)"><rect x="4" y="-2" width="32" height="24" fill="url(#tgw-90863560568c397b-k5)" stroke="none"/></g><path d="M236 0H240M240 0V20H260"/><path d="M237 8L240 17L243 8Z" fill="#000" stroke="none"/><path d="M260 20H280M280 20H284"/><g transform="translate(280)"><rect x="4" y="-2" width="32" height="24" fill="url(#tgw-90863560568c397b-k5)" stroke="none"/></g><path d="M316 0H320"/></g></g></g></g><g transform="translate(0,293)"><text x="-10" y="15" text-anchor="end" fill="#334155" font-weight="500" xml:space="preserve">clk3</text><g clip-path="url(#tgw-90863560568c397b-lane-clip)"><g transform="translate(0)"><g fill="none" stroke="#000" stroke-width="1" stroke-linecap="round" stroke-linejoin="round"><path d="M0 0V20H4"/><g transform="translate(0)"><rect x="4" y="-2" width="32" height="24" fill="url(#tgw-90863560568c397b-k2)" stroke="none"/></g><path d="M36 0H40M40 0H80M80 0V20H84"/><path d="M77 8L80 17L83 8Z" fill="#000" stroke="none"/><g transform="translate(80)"><rect x="4" y="-2" width="32" height="24" fill="url(#tgw-90863560568c397b-k3)" stroke="none"/></g><path d="M116 0H120M120 0H160M160 0H164"/><g transform="translate(160)"><rect x="4" y="-2" width="32" height="24" fill="url(#tgw-90863560568c397b-k4)" stroke="none"/></g><path d="M196 20H200M200 20H240M240 20V0H244"/><path d="M237 12L240 3L243 12Z" fill="#000" stroke="none"/><g transform="translate(240)"><rect x="4" y="-2" width="32" height="24" fill="url(#tgw-90863560568c397b-k1)" stroke="none"/></g><path d="M276 20H280M280 20H320"/></g></g></g></g><g transform="translate(0,329)"><text x="-10" y="15" text-anchor="end" fill="#334155" font-weight="500" xml:space="preserve">clk4</text><g clip-path="url(#tgw-90863560568c397b-lane-clip)"><g transform="translate(0)"><g fill="none" stroke="#000" stroke-width="1" stroke-linecap="round" stroke-linejoin="round"><rect x="0" y="0" width="40" height="20" fill="url(#tgw-90863560568c397b-xh)" stroke="none"/><path d="M0 0H40M0 20H40M40 0V20H60M60 20H80M80 20V0H100M100 0H160M160 0V20H180"/><path d="M157 8L160 17L163 8Z" fill="#000" stroke="none"/><path d="M180 20H240M240 20V0H260"/><path d="M237 12L240 3L243 12Z" fill="#000" stroke="none"/><path d="M260 0H280"/><path d="M283 0L289 0L300 0L300 20L289 20Z" fill="url(#tgw-90863560568c397b-xh)" stroke="none"/><path d="M280 0H283M300 0L289 0L283 0L289 20H300"/><rect x="300" y="0" width="20" height="20" fill="url(#tgw-90863560568c397b-xh)" stroke="none"/><path d="M300 0H320M300 20H320"/></g></g></g></g><g clip-path="url(#tgw-90863560568c397b-plot-clip)"></g></g><g></g></svg>