<svg xmlns="http://www.w3.org/2000/svg" class="tgw" role="img" aria-labelledby="tgw-edaa227c30c75087-diagram-title" width="540" height="204" viewBox="0 0 540 204" overflow="hidden" font-family="Inter, system-ui, -apple-system, BlinkMacSystemFont, Segoe UI, sans-serif" font-size="12" fill="#0f172a" stroke-linejoin="round"><title id="tgw-edaa227c30c75087-diagram-title">Signal timing diagram</title><desc>5 signal lanes; clk; Data; Request;  ; Acknowledge</desc><defs><pattern id="tgw-edaa227c30c75087-xh" width="6" height="6" patternUnits="userSpaceOnUse"><rect width="6" height="6" fill="#f1f5f9"/><path d="M-1,1 L1,-1 M0,6 L6,0 M5,7 L7,5" fill="none" stroke="#94a3b8" stroke-width="0.7"/></pattern><pattern id="tgw-edaa227c30c75087-k0" x="-4" y="-2" width="40" height="24" patternUnits="userSpaceOnUse" fill="none" stroke="#000" stroke-width="1" stroke-linecap="round" stroke-linejoin="round" viewBox="-4 -2 40 24"><path d="M-4 20H0M0 20V0H20M20 0V20H36"/></pattern><clipPath id="tgw-edaa227c30c75087-lane-clip" clipPathUnits="userSpaceOnUse"><rect x="-4" y="-4" width="404.5" height="28"/></clipPath><clipPath id="tgw-edaa227c30c75087-lane-crop" clipPathUnits="userSpaceOnUse"><rect x="0" y="-4" width="400.5" height="28"/></clipPath><clipPath id="tgw-edaa227c30c75087-plot-clip" clipPathUnits="userSpaceOnUse"><rect x="-4" y="-4" width="404.5" height="188"/></clipPath><pattern id="tgw-edaa227c30c75087-gd" width="40" height="180" patternUnits="userSpaceOnUse"><path d="M0.5,0 V180" fill="none" stroke="#cbd5e1" stroke-width="1" stroke-dasharray="2,4"/></pattern></defs><rect width="540" height="204" fill="#fff"/><g transform="translate(120.5,12.5)"><rect x="0" y="0" width="401" height="180" fill="url(#tgw-edaa227c30c75087-gd)" stroke="none"/><g transform="translate(0,5)"><text x="-10" y="15" text-anchor="end" fill="#334155" font-weight="500" xml:space="preserve">clk</text><g clip-path="url(#tgw-edaa227c30c75087-lane-clip)"><g transform="translate(0)"><g fill="none" stroke="#000" stroke-width="1" stroke-linecap="round" stroke-linejoin="round"><path d="M0 20V0H4"/><g transform="translate(0)"><rect x="4" y="-2" width="392" height="24" fill="url(#tgw-edaa227c30c75087-k0)" stroke="none"/></g><path d="M396 20H400"/></g></g><g transform="translate(260)"><path d="M-5,22 C0,22 0,-2 5,-2" fill="none" stroke="#fff" stroke-width="6"/><path d="M-7,22 C-2,22 -2,-2 3,-2" fill="none" stroke="#000" stroke-width="1"/><path d="M-3,22 C2,22 2,-2 7,-2" fill="none" stroke="#000" stroke-width="1"/></g></g></g><g transform="translate(0,41)"><text x="-10" y="15" text-anchor="end" fill="#334155" font-weight="500" xml:space="preserve">Data</text><g clip-path="url(#tgw-edaa227c30c75087-lane-clip)"><g transform="translate(0)"><g fill="none" stroke="#000" stroke-width="1" stroke-linecap="round" stroke-linejoin="round"><rect x="0" y="0" width="80" height="20" fill="url(#tgw-edaa227c30c75087-xh)" stroke="none"/><path d="M0 0H80M0 20H80"/><path d="M80 0L83 0L86 10L83 20L80 20" fill="url(#tgw-edaa227c30c75087-xh)" stroke="none"/><path d="M100 0L89 0L86 10L89 20L100 20" fill="#ffffb4" stroke="none"/><path d="M80 0L83 0L89 20L100 20M80 20L83 20L89 0L100 0"/><rect x="100" y="0" width="20" height="20" fill="#ffffb4" stroke="none"/><path d="M100 0H120M100 20H120"/><path d="M120 0L123 0L126 10L123 20L120 20" fill="#ffffb4" stroke="none"/><path d="M140 0L129 0L126 10L129 20L140 20" fill="#ffe0b9" stroke="none"/><path d="M120 0L123 0L129 20L140 20M120 20L123 20L129 0L140 0"/><rect x="140" y="0" width="20" height="20" fill="#ffe0b9" stroke="none"/><path d="M140 0H160M140 20H160"/><path d="M160 0L163 0L166 10L163 20L160 20" fill="#ffe0b9" stroke="none"/><path d="M180 0L169 0L166 10L169 20L180 20" fill="#b9e0ff" stroke="none"/><path d="M160 0L163 0L169 20L180 20M160 20L163 20L169 0L180 0"/><rect x="180" y="0" width="20" height="20" fill="#b9e0ff" stroke="none"/><path d="M180 0H200M180 20H200"/><path d="M200 0L203 0L206 10L203 20L200 20" fill="#b9e0ff" stroke="none"/><path d="M220 0L209 0L206 10L209 20L220 20" fill="url(#tgw-edaa227c30c75087-xh)" stroke="none"/><path d="M200 0L203 0L209 20L220 20M200 20L203 20L209 0L220 0"/><rect x="220" y="0" width="60" height="20" fill="url(#tgw-edaa227c30c75087-xh)" stroke="none"/><path d="M220 0H280M220 20H280"/><path d="M280 0L283 0L286 10L283 20L280 20" fill="url(#tgw-edaa227c30c75087-xh)" stroke="none"/><path d="M300 0L289 0L286 10L289 20L300 20" fill="#ffffff" stroke="none"/><path d="M280 0L283 0L289 20L300 20M280 20L283 20L289 0L300 0"/><rect x="300" y="0" width="60" height="20" fill="#ffffff" stroke="none"/><path d="M300 0H360M300 20H360"/><path d="M360 0L363 0L366 10L363 20L360 20" fill="#ffffff" stroke="none"/><path d="M380 0L369 0L366 10L369 20L380 20" fill="url(#tgw-edaa227c30c75087-xh)" stroke="none"/><path d="M360 0L363 0L369 20L380 20M360 20L363 20L369 0L380 0"/><rect x="380" y="0" width="20" height="20" fill="url(#tgw-edaa227c30c75087-xh)" stroke="none"/><path d="M380 0H400M380 20H400"/></g><text x="106" y="15" text-anchor="middle" xml:space="preserve" textLength="30" lengthAdjust="spacingAndGlyphs">head</text><text x="146" y="15" text-anchor="middle" xml:space="preserve" textLength="30" lengthAdjust="spacingAndGlyphs">body</text><text x="186" y="15" text-anchor="middle" xml:space="preserve">tail</text><text x="326" y="15" text-anchor="middle" xml:space="preserve">data</text></g><g transform="translate(260)"><path d="M-5,22 C0,22 0,-2 5,-2" fill="none" stroke="#fff" stroke-width="6"/><path d="M-7,22 C-2,22 -2,-2 3,-2" fill="none" stroke="#000" stroke-width="1"/><path d="M-3,22 C2,22 2,-2 7,-2" fill="none" stroke="#000" stroke-width="1"/></g></g></g><g transform="translate(0,77)"><text x="-10" y="15" text-anchor="end" fill="#334155" font-weight="500" xml:space="preserve">Request</text><g clip-path="url(#tgw-edaa227c30c75087-lane-clip)"><g transform="translate(0)"><g fill="none" stroke="#000" stroke-width="1" stroke-linecap="round" stroke-linejoin="round"><path d="M0 20H80M80 20L83 20L89 0H100M100 0H200M200 0L203 0L209 20H220M220 20H280M280 20L283 20L289 0H300M300 0H360M360 0L363 0L369 20H380M380 20H400"/></g></g><g transform="translate(260)"><path d="M-5,22 C0,22 0,-2 5,-2" fill="none" stroke="#fff" stroke-width="6"/><path d="M-7,22 C-2,22 -2,-2 3,-2" fill="none" stroke="#000" stroke-width="1"/><path d="M-3,22 C2,22 2,-2 7,-2" fill="none" stroke="#000" stroke-width="1"/></g></g></g><g transform="translate(0,113)"><text x="-10" y="15" text-anchor="end" fill="#334155" font-weight="500" xml:space="preserve"> </text><g clip-path="url(#tgw-edaa227c30c75087-lane-clip)"><g transform="translate(0)"></g></g></g><g transform="translate(0,149)"><text x="-10" y="15" text-anchor="end" fill="#334155" font-weight="500" xml:space="preserve">Acknowledge</text><g clip-path="url(#tgw-edaa227c30c75087-lane-clip)"><g transform="translate(0)"><g fill="none" stroke="#000" stroke-width="1" stroke-linecap="round" stroke-linejoin="round"><path d="M0 0H280M280 0L283 0L289 20H300M300 20H320M320 20L323 20L329 0H340M340 0H400"/></g></g><g transform="translate(260)"><path d="M-5,22 C0,22 0,-2 5,-2" fill="none" stroke="#fff" stroke-width="6"/><path d="M-7,22 C-2,22 -2,-2 3,-2" fill="none" stroke="#000" stroke-width="1"/><path d="M-3,22 C2,22 2,-2 7,-2" fill="none" stroke="#000" stroke-width="1"/></g></g></g><g clip-path="url(#tgw-edaa227c30c75087-plot-clip)"></g></g><g></g></svg>